<svg xmlns="http://www.w3.org/2000/svg" viewBox="0 0 600 700" role="img" aria-label="Puvi Law Office"><defs><linearGradient id="gold" x1="0" x2="1"><stop stop-color="#b88725"/><stop offset=".5" stop-color="#f0cf7a"/><stop offset="1" stop-color="#a77418"/></linearGradient></defs><rect width="600" height="700" rx="28" fill="#fff"/><path d="M120 360Q75 220 170 110Q300 0 430 110Q525 220 480 360" fill="none" stroke="url(#gold)" stroke-width="12"/><path d="M130 350Q165 500 300 555Q435 500 470 350" fill="none" stroke="#101c2b" stroke-width="16"/><g fill="none" stroke="#101c2b" stroke-width="10" stroke-linecap="round"><path d="M300 170V420M210 270H390M160 290L210 390L260 290M340 290L390 390L440 290"/><path d="M175 390Q210 420 245 390M355 390Q390 420 425 390"/></g><text x="300" y="250" text-anchor="middle" font-family="Georgia,serif" font-size="150" font-weight="700" fill="#101c2b">PL</text><path d="M300 420l-22 55h44z" fill="url(#gold)"/><text x="300" y="610" text-anchor="middle" font-family="Georgia,serif" font-size="78" font-weight="700" fill="#101c2b">PUVI</text><text x="300" y="660" text-anchor="middle" font-family="Georgia,serif" font-size="30" letter-spacing="8" fill="#b88725">LAW OFFICE</text></svg>